<?xml version="1.0" encoding="utf-8"?>
<!-- Generator: Adobe Illustrator 19.2.1, SVG Export Plug-In . SVG Version: 6.00 Build 0)  -->
<svg version="1.1" id="Layer_1" xmlns="http://www.w3.org/2000/svg" xmlns:xlink="http://www.w3.org/1999/xlink" x="0px" y="0px"
	 viewBox="0 0 83 50" style="enable-background:new 0 0 83 50;" xml:space="preserve">
<style type="text/css">
	.st0{fill:#A7B3BA;}
</style>
<g>
	<g>
		<g>
			<path class="st0" d="M49.3,17.7c-0.6-0.3-1-0.8-1.2-1.4l3.9-1.1c-0.1-0.5-0.5-0.8-0.8-1c0.6,0.3,1,0.8,1.2,1.4l-3.9,1.1
				C48.6,17.2,49,17.5,49.3,17.7z"/>
			<path class="st0" d="M7.3,49.7c-1.5,0-2.9-0.5-3.9-1.3c-1.3-1-3.2-3.4-2-8.3l2-8.3c0.8-3.5,1-9.9,0.3-13.9L2.1,9.7
				C1,4.7,3.3,2.5,4.2,1.7c1.5-1.4,4.5-2.1,8.6,0.2l18.5,11.4c0.6,0.3,1,0.7,1.4,1.1c0.1,0.1,0.3,0.3,0.5,0.4l-2.6,3.1
				c-0.2-0.2-0.4-0.3-0.5-0.5c-0.4-0.3-0.6-0.5-0.8-0.6L10.8,5.4C8.5,4.1,7.2,4.4,7,4.7C6.3,5.3,5.4,6.1,6,8.8l1.6,8.3
				c0.8,4.6,0.6,11.6-0.4,15.6l-2,8.3c-0.4,1.5-0.5,3.4,0.6,4.2l0.1,0.1c0.3,0.2,0.8,0.4,1.6,0.4c0.7-0.2,1.6-0.5,2.5-0.9l19-10.4
				c1-0.5,1.7-1.1,2.3-1.8l3.2,2.4c-0.9,1.2-2.1,2.2-3.6,3l-19,10.4c-1.3,0.7-2.6,1.1-3.4,1.3l-0.3,0.1C7.9,49.7,7.6,49.7,7.3,49.7z
				"/>
			<path class="st0" d="M75.3,49.6c-1.3,0-3.1-0.2-5.2-1.6L51.5,36.5c-0.3-0.2-0.6-0.5-1-0.7c-0.4-0.3-0.9-0.6-1.3-1l2.6-3.1
				c0.3,0.2,0.6,0.5,1,0.7c0.4,0.3,0.8,0.5,1.2,0.9l18.3,11.3c1.3,0.8,2.3,1,3.1,1c0.3-0.1,0.7-0.2,0.8-0.3c0.6-0.6,1.5-1.4,0.9-4.1
				l-1.6-8.3c-0.8-4.6-0.6-11.6,0.4-15.6l2-8.1c0.5-2,0.3-3.5-0.6-4L77.1,5c-0.8-0.6-2.4-0.5-4.2,0.5l-19,10.4
				c-0.6,0.4-1.3,1-2.1,1.7l-2.7-3c0.9-0.8,1.8-1.6,2.9-2.3L71,2c4.3-2.3,7.1-1.2,8.4-0.2c1.3,0.7,3.7,2.9,2.4,8.4l-2,8.1
				c-0.8,3.5-1,9.9-0.3,13.9l1.6,8.2c1.1,4.9-1.3,7.1-2.2,8c-0.8,0.7-1.7,1-2.6,1.2L76,49.6l-0.3,0C75.6,49.6,75.5,49.6,75.3,49.6z"
				/>
		</g>
	</g>
</g>
<path class="st0" d="M40.6,39.8c-3,0-5.8-1.2-8-3.3c-2.2-2.1-3.4-5-3.4-8l0-6.5c0-6.3,5-11.4,11.3-11.5l1.8,0c0,0,0,0,0.1,0
	c6.2,0,11.3,5.1,11.4,11.3l0,6.5c0,6.3-5,11.4-11.3,11.5L40.6,39.8C40.6,39.8,40.6,39.8,40.6,39.8z M42.3,14.2
	C42.3,14.2,42.2,14.2,42.3,14.2l-1.8,0c-4.3,0-7.7,3.5-7.7,7.8l0,6.5c0,2.1,0.8,4,2.3,5.4c1.5,1.4,3.4,2.2,5.4,2.2c0,0,0,0,0,0
	l1.8,0c4.3,0,7.7-3.5,7.7-7.8l0-6.5C50,17.6,46.5,14.2,42.3,14.2z"/>
</svg>
